<?xml version="1.0" standalone="no"?>
<!DOCTYPE svg PUBLIC "-//W3C//DTD SVG 20010904//EN"
 "http://www.w3.org/TR/2001/REC-SVG-20010904/DTD/svg10.dtd">
<svg version="1.0" xmlns="http://www.w3.org/2000/svg"
 width="300.000000pt" height="81.000000pt" viewBox="0 0 300.000000 81.000000"
 preserveAspectRatio="xMidYMid meet">

<g transform="translate(0.000000,81.000000) scale(0.100000,-0.100000)"
fill="#000000" stroke="none">
<path d="M310 660 l-29 -31 19 -32 c11 -18 20 -40 20 -50 0 -14 4 -16 18 -8
37 20 98 -33 73 -63 -20 -24 -57 -19 -79 9 -17 21 -21 22 -26 9 -13 -34 -6
-39 50 -39 50 0 58 3 79 29 20 26 21 31 9 55 -8 14 -14 31 -14 37 0 6 -18 17
-40 24 -22 7 -47 22 -57 32 -15 17 -15 20 -1 35 22 21 59 11 80 -24 l17 -28 1
35 c0 35 -1 35 -46 38 -40 2 -49 -2 -74 -28z"/>
<path d="M2189 677 c13 -17 13 -197 -1 -214 -8 -10 -1 -13 31 -13 39 0 41 1
31 20 -6 12 -10 33 -8 48 2 21 11 29 43 39 l40 12 -40 -2 -40 -2 0 55 c0 45 3
55 18 58 32 6 63 -7 75 -30 6 -13 11 -17 11 -10 1 7 -4 22 -9 33 -9 16 -22 19
-87 19 -61 0 -73 -2 -64 -13z"/>
<path d="M478 638 c6 -7 10 -47 10 -88 0 -41 -4 -81 -10 -87 -8 -10 -1 -13 32
-13 34 0 40 3 32 13 -13 15 12 59 47 83 20 15 21 14 21 -28 0 -24 -5 -49 -12
-56 -9 -9 -3 -12 30 -12 38 0 42 2 33 18 -5 9 -9 46 -9 82 0 36 4 73 9 83 9
15 5 17 -31 17 -37 0 -40 -2 -30 -19 19 -36 11 -58 -30 -85 l-40 -26 0 53 c0
29 5 58 12 65 9 9 2 12 -31 12 -34 0 -41 -3 -33 -12z"/>
<path d="M761 628 c-39 -111 -55 -149 -62 -154 -17 -10 -9 -24 16 -24 17 0 23
4 19 15 -6 15 31 75 47 75 17 0 32 -53 20 -72 -10 -16 -6 -18 41 -18 44 0 49
2 35 13 -16 12 -53 104 -64 160 -7 34 -40 37 -52 5z m19 -53 c0 -14 -8 -29
-20 -35 -23 -12 -23 -13 -9 29 13 37 29 41 29 6z"/>
<path d="M909 632 c5 -10 8 -55 7 -100 -3 -74 -2 -82 15 -82 13 0 19 7 19 23
0 23 17 47 32 47 4 0 21 -19 38 -42 23 -31 27 -44 18 -50 -8 -4 5 -8 31 -8
l43 0 -28 29 c-16 17 -37 44 -47 60 -18 31 -18 31 5 40 13 6 18 10 12 10 -6 1
-9 13 -6 30 6 40 -27 61 -96 61 -48 0 -52 -2 -43 -18z m91 -11 c5 -11 10 -27
10 -35 0 -16 -34 -56 -47 -56 -10 0 -16 87 -8 100 10 16 34 11 45 -9z"/>
<path d="M1098 638 c6 -7 10 -47 10 -88 0 -41 -4 -81 -10 -87 -8 -10 -3 -13
21 -13 23 0 31 5 31 17 0 9 15 33 33 52 30 33 30 34 5 18 -15 -9 -30 -17 -33
-17 -3 0 -5 26 -3 57 2 47 7 58 21 61 32 6 63 -7 75 -30 6 -13 11 -17 11 -10
1 7 -4 22 -9 33 -9 16 -22 19 -87 19 -59 0 -73 -3 -65 -12z"/>
<path d="M1451 634 c-13 -9 -30 -32 -38 -51 -12 -31 -12 -38 4 -71 39 -80 111
-81 150 -3 l22 43 -19 39 c-31 59 -74 74 -119 43z m68 -11 c12 -23 12 -123 -1
-146 -16 -31 -51 -17 -59 23 -4 19 -3 40 2 47 6 7 6 13 0 17 -8 5 -7 26 5 64
5 18 42 15 53 -5z"/>
<path d="M1615 550 c0 -97 1 -100 23 -100 19 0 21 3 13 18 -6 10 -9 43 -9 73
l2 54 27 -60 c16 -33 28 -66 29 -72 0 -8 15 -13 41 -13 32 0 39 3 31 13 -6 6
-10 46 -10 87 0 41 4 81 10 88 8 9 5 12 -13 12 -23 0 -24 -3 -22 -67 l2 -68
-25 59 c-27 65 -36 76 -74 76 l-25 0 0 -100z"/>
<path d="M1818 638 c6 -7 10 -47 10 -88 0 -41 -4 -81 -10 -87 -8 -10 4 -13 55
-13 71 0 71 0 81 45 l7 30 -21 -33 c-15 -24 -27 -32 -43 -30 -20 3 -22 9 -24
78 -1 41 3 82 8 92 9 16 5 18 -32 18 -32 0 -39 -3 -31 -12z"/>
<path d="M1984 616 c39 -39 60 -94 54 -137 -4 -27 -2 -29 29 -29 30 0 32 2 22
18 -18 29 -2 86 36 137 l35 45 -39 0 c-32 0 -38 -3 -35 -17 3 -10 -2 -27 -10
-38 l-15 -20 -15 20 c-8 11 -16 28 -16 38 0 13 -9 17 -40 17 l-41 0 35 -34z"/>
<path d="M2427 639 c-9 -5 -26 -27 -37 -48 l-19 -39 22 -43 c39 -78 111 -77
150 3 16 33 16 40 4 71 -24 57 -76 81 -120 56z m74 -37 c4 -18 2 -35 -3 -38
-5 -4 -5 -10 1 -17 5 -7 6 -28 2 -47 -5 -25 -13 -36 -28 -38 -29 -4 -41 21
-41 88 0 67 12 92 41 88 15 -2 23 -13 28 -36z"/>
<path d="M2589 632 c5 -10 8 -55 7 -100 -3 -74 -2 -82 15 -82 13 0 19 7 19 23
0 23 17 47 32 47 4 0 21 -19 38 -42 23 -31 27 -44 18 -50 -8 -4 5 -8 31 -8
l43 0 -28 29 c-16 17 -37 44 -47 60 -18 31 -18 31 5 40 13 6 18 10 12 10 -6 1
-9 13 -6 30 6 40 -27 61 -96 61 -48 0 -52 -2 -43 -18z m91 -11 c5 -11 10 -27
10 -35 0 -16 -34 -56 -47 -56 -10 0 -16 87 -8 100 10 16 34 11 45 -9z"/>
<path d="M1248 495 c-6 -15 -24 -29 -42 -34 l-31 -9 36 -1 c32 -1 37 2 46 34
13 41 8 46 -9 10z"/>
<path d="M295 260 c0 -118 0 -120 23 -120 20 0 22 5 22 49 0 68 22 74 48 13
15 -34 17 -49 9 -54 -7 -4 25 -8 71 -8 58 0 81 3 76 11 -9 15 14 56 44 75 l24
16 -3 -51 -4 -51 32 0 c31 0 31 1 20 30 -9 23 -9 35 1 50 7 12 8 21 2 25 -13
8 -13 91 0 116 10 17 7 19 -32 19 -33 0 -39 -3 -30 -12 7 -7 12 -35 12 -64 0
-49 -2 -54 -34 -73 -18 -12 -36 -21 -40 -21 -10 0 -7 130 4 151 10 17 7 19
-31 19 -33 0 -39 -3 -30 -13 15 -19 14 -217 -2 -217 -22 0 -34 14 -55 64 -22
48 -21 66 1 66 9 0 11 13 9 41 -5 46 -25 59 -95 59 l-42 0 0 -120z m93 87 c6
-31 -7 -66 -28 -77 -19 -10 -20 -7 -20 45 0 53 1 56 22 53 13 -2 24 -11 26
-21z"/>
<path d="M734 357 c-34 -29 -48 -106 -29 -153 26 -64 96 -84 140 -39 14 13 25
30 25 37 -1 7 -7 1 -16 -14 -16 -31 -59 -46 -83 -31 -9 6 -16 25 -17 45 0 19
-4 40 -8 47 -9 14 0 76 15 103 16 30 57 22 79 -14 l20 -33 0 28 c0 49 -79 64
-126 24z"/>
<path d="M942 373 c-7 -3 -19 -18 -28 -35 -14 -27 -14 -32 2 -56 10 -15 19
-31 20 -37 0 -5 2 -14 2 -19 1 -5 8 -3 16 3 20 16 76 -12 76 -38 0 -49 -68
-51 -94 -3 -14 25 -15 25 -16 5 0 -12 -2 -27 -5 -35 -4 -10 8 -13 51 -13 50 0
58 3 79 29 21 27 22 30 7 67 -12 31 -23 41 -55 52 -45 15 -63 36 -54 61 11 28
56 20 75 -14 22 -39 32 -38 32 3 0 31 -1 32 -48 33 -26 1 -53 0 -60 -3z"/>
<path d="M1135 283 c-15 -54 -33 -108 -41 -120 -14 -22 -13 -23 18 -23 22 0
29 3 19 9 -15 10 -5 36 28 65 24 22 28 20 41 -23 7 -25 5 -33 -8 -41 -13 -7
-3 -9 37 -10 53 0 54 0 37 19 -10 11 -22 34 -26 53 -5 18 -16 59 -25 91 -9 32
-13 62 -10 67 3 6 -5 10 -18 10 -22 0 -27 -9 -52 -97z m24 -54 c-13 -9 -25
-16 -27 -14 -3 3 15 79 25 105 4 9 10 -2 16 -29 10 -40 9 -45 -14 -62z"/>
<path d="M1518 367 c9 -10 12 -47 10 -121 -3 -104 -3 -106 20 -106 17 0 22 6
22 25 0 31 47 82 62 67 18 -18 5 -66 -22 -80 -24 -13 -23 -13 15 -8 67 9 85
58 37 97 l-27 23 22 23 c27 26 29 42 9 68 -11 15 -30 20 -87 23 -65 4 -72 3
-61 -11z m105 -61 c-2 -43 -7 -62 -20 -71 -27 -20 -33 -9 -33 59 0 69 4 78 35
74 18 -3 20 -9 18 -62z"/>
<path d="M2559 361 c12 -22 11 -179 -1 -204 -7 -14 -4 -17 24 -17 l33 0 -2 57
c-1 32 -2 86 -2 121 l-1 62 -30 0 c-27 0 -29 -2 -21 -19z"/>
<path d="M1787 308 c-8 -18 -22 -57 -31 -85 -10 -29 -22 -55 -27 -58 -17 -11
-9 -25 15 -25 18 0 23 4 19 18 -4 18 31 72 48 72 17 0 32 -53 20 -73 -10 -15
-7 -17 33 -17 l44 0 -18 37 c-22 47 -41 99 -47 136 -7 39 -39 36 -56 -5z m23
-50 c0 -10 -10 -22 -22 -29 -18 -10 -20 -9 -14 6 3 9 9 28 12 42 5 18 9 21 15
11 5 -7 9 -21 9 -30z"/>
<path d="M1940 337 c0 -1 -4 -17 -9 -35 -6 -20 -6 -30 0 -27 5 4 9 13 9 21 0
15 39 35 52 28 11 -7 7 -158 -4 -171 -8 -10 -1 -13 31 -13 37 0 41 2 32 18
-11 21 -13 143 -2 160 11 18 39 4 56 -27 l15 -26 -6 30 c-4 17 -9 33 -11 38
-4 6 -163 11 -163 4z"/>
<path d="M2181 324 c-13 -9 -29 -32 -37 -50 -12 -29 -12 -39 0 -68 18 -42 52
-66 91 -65 24 1 25 3 7 6 -32 6 -50 40 -50 93 0 52 20 90 48 90 19 0 28 -7 55
-45 14 -19 14 -19 15 7 0 20 -7 28 -31 37 -44 15 -71 14 -98 -5z"/>
<path d="M2335 240 l0 -100 32 0 c25 0 30 3 26 18 -4 19 40 82 58 82 13 0 11
-74 -3 -88 -9 -9 -3 -12 28 -12 l39 0 0 100 0 100 -40 -1 c-22 0 -34 -3 -27
-6 6 -2 12 -21 12 -41 -1 -31 -6 -41 -36 -60 l-36 -22 4 65 3 65 -30 0 -30 0
0 -100z"/>
<path d="M1348 262 c-43 -3 -48 -6 -48 -27 0 -21 5 -24 48 -27 26 -2 68 -1 95
0 41 4 47 7 47 27 0 20 -6 23 -47 27 -27 1 -69 2 -95 0z"/>
<path d="M2301 201 c-1 -8 -8 -23 -18 -33 -9 -10 -11 -18 -5 -18 15 0 35 38
28 53 -3 8 -5 7 -5 -2z"/>
</g>
</svg>
